<svg width="14" height="20" viewBox="0 0 14 20" fill="none" xmlns="http://www.w3.org/2000/svg">
<path d="M13.3999 9.7L7.3999 0.7C7.1999 0.4 6.7999 0.4 6.5999 0.7L0.599902 9.7C0.499902 9.9 0.499902 10.1 0.599902 10.3L6.5999 19.3C6.6999 19.4 6.7999 19.5 6.9999 19.5C7.1999 19.5 7.2999 19.4 7.3999 19.3L13.3999 10.3C13.4999 10.1 13.4999 9.9 13.3999 9.7ZM6.9999 18.1L2.3999 11.2L6.7999 13.2C6.8999 13.3 7.0999 13.3 7.1999 13.2L11.5999 11.2L6.9999 18.1ZM6.9999 12.1L1.6999 9.7L6.9999 1.9L12.2999 9.8L6.9999 12.1Z" fill="white"/>
</svg>
