<svg width="337" height="359" viewBox="0 0 337 359" fill="none" xmlns="http://www.w3.org/2000/svg">
<path d="M240.646 303.047C248.347 295.108 259.676 291.718 270.154 294.296C285.316 298.027 295.989 315.489 290.756 331.896L247.701 331.364C249.686 339.884 255.977 344.652 264.71 344.652C273.899 344.652 276.647 341.963 279.381 339.363C279.837 338.93 280.401 338.734 281.028 338.791C281.655 338.848 282.173 339.141 282.544 339.65C284.138 341.838 286.535 345.03 287.955 346.913C288.623 347.8 288.494 349.046 287.657 349.776C280.636 355.904 275.093 359.018 264.669 358.928C252.461 358.822 239.781 352.589 234.65 339.437L234.412 338.805C230.282 327.51 232.026 311.934 240.646 303.047ZM125.763 314.674C133.632 292.044 160.233 287.887 175.25 300.161C175.941 300.726 176.564 301.251 177.253 301.88C178.01 302.572 178.177 302.782 178.811 303.511C185.369 311.057 187.104 318.417 187.104 328.175H187.103C187.102 332.681 185.865 336.926 183.952 340.811C175.228 358.535 152.446 364.715 136.515 352.717L133.361 350.022C124.45 341.111 121.714 326.318 125.763 314.674ZM210.464 280.867C211.603 280.867 212.538 281.772 212.575 282.911L212.907 293.22V293.624H225.92C227.083 293.624 228.032 294.573 228.032 295.736V306.044C228.032 307.207 227.083 308.156 225.92 308.156H212.907V334.746C212.907 339.257 213.715 345.185 219.527 345.185C223.141 345.185 224.65 344.57 225.82 343.854C226.38 343.512 227.001 343.446 227.62 343.663C228.239 343.88 228.683 344.319 228.907 344.936L231.713 352.649C232.055 353.591 231.707 354.614 230.863 355.152C225.56 358.535 222.841 359.035 214.221 358.472C207.92 358.06 202.647 353.951 200.368 349.46C198.796 346.364 198.056 342.354 197.734 337.996C197.734 337.207 197.754 336.139 197.785 334.879C197.785 325.972 197.734 317.059 197.734 308.157H189.655C188.492 308.157 187.543 307.208 187.543 306.045V295.738C187.543 294.575 188.492 293.626 189.655 293.626L189.656 293.624H197.734V282.979C197.734 281.816 198.684 280.867 199.847 280.867H210.464ZM80.9209 294.282C86.8744 292.51 95.9366 293.562 101.69 296.117C109.435 299.556 115.376 306.405 118.143 314.748C120.006 320.368 120.503 328.275 118.914 334.933C117.696 340.037 114.973 345.29 111.395 349.206C111.29 349.32 110.988 349.642 110.877 349.751C103.332 357.128 95.7776 359.016 85.5811 358.496C78.9256 358.156 73.8759 356.296 68.9287 352.267L64.3066 347.853C62.0327 345.111 60.4407 342.049 59.0625 338.744C58.1418 336.535 58.3329 336.85 57.7803 334.18C56.5461 328.21 56.8307 330.735 56.8711 324.714L56.876 323.391C56.876 320.816 57.4966 319.348 57.9258 317C58.8657 311.852 63.1462 305.052 67.0088 301.632C70.4177 298.613 73.4767 296.517 77.9893 295.071C78.8888 294.783 80.0404 294.544 80.9209 294.282ZM9.03711 275.019C11.7036 275.01 15.9463 274.154 15.9463 276.614V343.589H53.6865C54.9113 343.589 55.2812 343.959 55.2812 345.184C55.2812 352.692 56.4229 357.94 53.6865 357.94H1.59473C0.369712 357.94 0 357.571 0 356.346V277.678C0 276.242 0.253778 276.212 0.53125 275.02C3.36622 275.02 6.20214 275.028 9.03711 275.019ZM335.783 293.626C336.117 293.624 336.406 293.742 336.643 293.978C336.88 294.214 336.999 294.501 336.999 294.835V307.83C336.999 308.496 336.456 309.039 335.791 309.039H330.621C321.67 310.329 317.09 317.472 316.814 326.275C316.806 326.553 316.802 326.833 316.802 327.111V356.732C316.802 357.398 316.258 357.94 315.593 357.94H303.126C302.461 357.94 301.918 357.398 301.918 356.732V295.28L301.917 295.279C301.917 294.614 302.46 294.071 303.126 294.071H315.592C316.257 294.071 316.801 294.614 316.801 295.279V300.364C318.01 299.91 318.43 299.202 319.754 298.171C324.998 294.084 330.007 293.663 335.783 293.626ZM103.494 333.332C108.257 318.059 97.6022 303.059 82.2275 308.877C71.3846 312.98 69.0399 329.828 76.7451 339.665C77.7826 340.99 77.5871 340.785 79.0117 341.651C82.0487 343.499 83.7359 344.651 88.2363 344.651C94.0062 344.651 97.4644 342.303 100.347 339.22C101.529 337.954 101.436 338.041 102.224 336.313C102.679 335.315 103.302 333.947 103.494 333.332ZM167.577 313.151C161.112 305.762 150.165 305.983 144.162 312.341C135.112 321.925 138.309 344.652 155.743 344.652C160.424 344.652 165.183 342.403 167.683 339.051C173.199 331.65 172.883 319.215 167.577 313.151ZM274.159 311.814C268.411 305.583 257.315 305.561 251.539 311.814C249.718 313.786 247.976 316.878 247.7 320.201H277.998C277.698 316.582 276.125 313.945 274.159 311.814ZM247.972 155.687L215.507 192.739C215.713 194.537 215.821 196.366 215.821 198.22C215.821 224.495 194.52 245.796 168.245 245.796C141.97 245.796 120.67 224.495 120.67 198.22C120.67 196.191 120.798 194.191 121.045 192.229H121.047L89.0303 155.687L130.229 109.283L168.501 133.628L206.772 109.283L247.972 155.687ZM168.5 167.616L146.188 136.658L110.283 157.212L124.844 178.712C130.109 167.016 139.962 157.832 152.112 153.452L165.538 172.08C152.297 173.436 141.968 184.621 141.968 198.22C141.968 212.732 153.732 224.497 168.245 224.497C182.757 224.497 194.521 212.732 194.521 198.22C194.521 184.783 184.435 173.704 171.421 172.135L184.78 153.599C196.902 158.092 206.692 167.383 211.849 179.165L226.717 157.212L190.812 136.658L168.5 167.616ZM173.284 0.210938V45.9814L206.771 103.861L168.5 126.553L130.229 103.861L163.716 45.9814V0.210938H173.284Z" fill="url(#paint0_linear_191_28820)"/>
<defs>
<linearGradient id="paint0_linear_191_28820" x1="4.91785e-06" y1="79.5702" x2="260" y2="409.57" gradientUnits="userSpaceOnUse">
<stop stop-color="#00DB9B"/>
<stop offset="1" stop-color="#5499C9"/>
</linearGradient>
</defs>
</svg>
