<svg width="32" height="32" viewBox="0 0 32 32" fill="none" xmlns="http://www.w3.org/2000/svg">
<path d="M0 8.42105C0 3.77023 3.77023 0 8.42105 0H23.5789C28.2298 0 32 3.77023 32 8.42105V23.5789C32 28.2298 28.2298 32 23.5789 32H8.42105C3.77023 32 0 28.2298 0 23.5789V8.42105Z" fill="url(#paint0_radial_242_246)"/>
<path fill-rule="evenodd" clip-rule="evenodd" d="M14.8307 18.5996C13.593 19.0454 12.5893 19.9803 12.0529 21.1709L10.5697 18.9823L14.2271 16.8901L16.4999 20.0415L18.7728 16.8901L22.4302 18.9823L20.9157 21.2171C20.3904 20.0177 19.3931 19.072 18.1583 18.6146L16.7975 20.5014C18.1232 20.6611 19.1507 21.789 19.1507 23.1569C19.1507 24.6342 17.9522 25.8319 16.4739 25.8319C14.9956 25.8319 13.7972 24.6342 13.7972 23.1569C13.7972 21.7726 14.8495 20.6339 16.1983 20.4959L14.8306 18.5996H14.8307ZM16.4999 3H16.0126V7.65935L12.6015 13.5514L16.4999 15.8613L20.3984 13.5514L16.9873 7.65935V3L16.4999 3ZM11.666 22.547C11.6408 22.7468 11.6277 22.9503 11.6277 23.1569C11.6277 25.8316 13.7974 28 16.474 28C19.1505 28 21.3203 25.8317 21.3203 23.1569C21.3203 22.9682 21.3094 22.782 21.2883 22.5989L24.5953 18.8271L20.3985 14.1033L16.5 16.5816L12.6015 14.1033L8.40479 18.8271L11.6661 22.547H11.666Z" fill="white"/>
<defs>
<radialGradient id="paint0_radial_242_246" cx="0" cy="0" r="1" gradientTransform="matrix(16.1885 31.5175 -30.9252 13.5813 8.5 5)" gradientUnits="userSpaceOnUse">
<stop stop-color="#07DB9D"/>
<stop offset="1" stop-color="#05628D"/>
</radialGradient>
</defs>
</svg>
