<svg width="14" height="10" viewBox="0 0 14 10" fill="none" xmlns="http://www.w3.org/2000/svg">
<path fill-rule="evenodd" clip-rule="evenodd" d="M13.2803 4.21967C13.5732 4.51256 13.5732 4.98744 13.2803 5.28033L9.28033 9.28033C8.98744 9.57322 8.51256 9.57322 8.21967 9.28033C7.92678 8.98744 7.92678 8.51256 8.21967 8.21967L10.9393 5.5L0.75 5.5C0.335787 5.5 -2.25735e-07 5.16421 -2.07629e-07 4.75C-1.89523e-07 4.33579 0.335787 4 0.75 4L10.9393 4L8.21967 1.28033C7.92678 0.987437 7.92678 0.512563 8.21967 0.21967C8.51256 -0.0732235 8.98744 -0.0732235 9.28033 0.21967L13.2803 4.21967Z" fill="black"/>
</svg>
