<svg width="16" height="13" viewBox="0 0 16 13" fill="none" xmlns="http://www.w3.org/2000/svg">
<path fill-rule="evenodd" clip-rule="evenodd" d="M5.35 0.300044C5.10147 -0.0313267 4.63137 -0.098484 4.3 0.150044L0.3 3.15004C0.111146 3.29168 0 3.51398 0 3.75004C0 3.98611 0.111146 4.2084 0.3 4.35004L4.3 7.35004C4.63137 7.59857 5.10147 7.53141 5.35 7.20004C5.59853 6.86867 5.53137 6.39857 5.2 6.15004L3 4.50004L10.75 4.50004C12.5449 4.50004 14 5.95512 14 7.75004C14 9.54497 12.5449 11 10.75 11L0.75 11C0.335787 11 0 11.3358 0 11.75C0 12.1643 0.335787 12.5 0.75 12.5L10.75 12.5C13.3734 12.5 15.5 10.3734 15.5 7.75004C15.5 5.12669 13.3734 3.00004 10.75 3.00004L3 3.00004L5.2 1.35004C5.53137 1.10152 5.59853 0.631415 5.35 0.300044Z" fill="#00DB9B"/>
</svg>
