<svg width="18" height="18" viewBox="0 0 18 18" fill="none" xmlns="http://www.w3.org/2000/svg">
<g clip-path="url(#clip0_1161_3157)">
<path d="M6.75 11.25C6.75 9.129 6.75 8.06775 7.40925 7.40925C8.06775 6.75 9.129 6.75 11.25 6.75H12C14.121 6.75 15.1823 6.75 15.8408 7.40925C16.5 8.06775 16.5 9.129 16.5 11.25V12C16.5 14.121 16.5 15.1823 15.8408 15.8408C15.1823 16.5 14.121 16.5 12 16.5H11.25C9.129 16.5 8.06775 16.5 7.40925 15.8408C6.75 15.1823 6.75 14.121 6.75 12V11.25Z" stroke="#828C9A" stroke-width="1.5" stroke-linecap="round" stroke-linejoin="round"/>
<path d="M12.75 6.75C12.7477 4.53225 12.7147 3.38325 12.069 2.5965C11.9444 2.44474 11.8053 2.30557 11.6535 2.181C10.8225 1.5 9.591 1.5 7.125 1.5C4.65975 1.5 3.42675 1.5 2.5965 2.181C2.44474 2.30557 2.30557 2.44474 2.181 2.5965C1.5 3.4275 1.5 4.659 1.5 7.125C1.5 9.59025 1.5 10.8233 2.181 11.6535C2.30557 11.8053 2.44474 11.9444 2.5965 12.069C3.384 12.714 4.5315 12.7485 6.75 12.75" stroke="#828C9A" stroke-width="1.5" stroke-linecap="round" stroke-linejoin="round"/>
</g>
<defs>
<clipPath id="clip0_1161_3157">
<rect width="18" height="18" fill="white"/>
</clipPath>
</defs>
</svg>
