<svg width="10" height="12" viewBox="0 0 10 12" fill="none" xmlns="http://www.w3.org/2000/svg">
<path fill-rule="evenodd" clip-rule="evenodd" d="M5.14563 0.0625768C5.21281 0.0624737 5.27908 0.0781682 5.33909 0.108393C5.39909 0.138619 5.45115 0.182528 5.49106 0.236577L9.31991 5.43429L5.14563 6.81943L0.971343 5.43429L4.80191 0.236577C4.84165 0.182761 4.89343 0.138994 4.95312 0.108779C5.0128 0.0785648 5.07873 0.0627419 5.14563 0.0625768ZM0.961914 6.55886L4.80191 11.772C4.84175 11.8261 4.89372 11.87 4.95365 11.9003C5.01357 11.9305 5.07977 11.9463 5.14691 11.9463C5.21406 11.9463 5.28026 11.9305 5.34018 11.9003C5.40011 11.87 5.45208 11.8261 5.49191 11.772L9.33191 6.55886L5.3162 7.89258C5.20652 7.92868 5.08816 7.92868 4.97849 7.89258L0.961914 6.55886Z" fill="#009A6F"/>
</svg>
