<svg width="18" height="12" viewBox="0 0 18 12" fill="none" xmlns="http://www.w3.org/2000/svg">
<path d="M11.5 6.83301C12.6648 6.83301 13.6432 7.62994 13.9209 8.70801H16.5C16.8451 8.70801 17.1248 8.98798 17.125 9.33301C17.125 9.67819 16.8452 9.95801 16.5 9.95801H13.9209C13.6434 11.0363 12.6649 11.833 11.5 11.833C10.1193 11.833 9 10.7137 9 9.33301C9.00018 7.95245 10.1194 6.83301 11.5 6.83301ZM6.5 8.70801C6.84507 8.70801 7.12482 8.98798 7.125 9.33301C7.125 9.67819 6.84518 9.95801 6.5 9.95801H1.5C1.15482 9.95801 0.875 9.67819 0.875 9.33301C0.875176 8.98798 1.15493 8.70801 1.5 8.70801H6.5ZM6.5 0.166992C7.88071 0.166992 9 1.28628 9 2.66699C8.99982 4.04755 7.8806 5.16699 6.5 5.16699C5.33524 5.16699 4.35676 4.37006 4.0791 3.29199H1.5C1.15493 3.29199 0.875176 3.01202 0.875 2.66699C0.875 2.32181 1.15482 2.04199 1.5 2.04199H4.0791C4.35663 0.963725 5.3351 0.166992 6.5 0.166992ZM16.5 2.04199C16.8452 2.04199 17.125 2.32181 17.125 2.66699C17.1248 3.01202 16.8451 3.29199 16.5 3.29199H11.5C11.1549 3.29199 10.8752 3.01202 10.875 2.66699C10.875 2.32181 11.1548 2.04199 11.5 2.04199H16.5Z" fill="#9AAAC0"/>
</svg>
