<svg width="18" height="19" viewBox="0 0 18 19" fill="none" xmlns="http://www.w3.org/2000/svg">
<path d="M11.25 10.25C12.2984 10.25 13.1789 10.9671 13.4287 11.9375H15.75C16.0607 11.9375 16.3125 12.1893 16.3125 12.5C16.3125 12.8107 16.0607 13.0625 15.75 13.0625H13.4287C13.1789 14.0329 12.2984 14.75 11.25 14.75C10.0074 14.75 9 13.7426 9 12.5C9 11.2574 10.0074 10.25 11.25 10.25ZM6.75 11.9375C7.06066 11.9375 7.3125 12.1893 7.3125 12.5C7.3125 12.8107 7.06066 13.0625 6.75 13.0625H2.25C1.93934 13.0625 1.6875 12.8107 1.6875 12.5C1.6875 12.1893 1.93934 11.9375 2.25 11.9375H6.75ZM6.75 4.25C7.99264 4.25 9 5.25736 9 6.5C9 7.74264 7.99264 8.75 6.75 8.75C5.70163 8.75 4.8211 8.03289 4.57129 7.0625H2.25C1.93934 7.0625 1.6875 6.81066 1.6875 6.5C1.6875 6.18934 1.93934 5.9375 2.25 5.9375H4.57129C4.8211 4.96711 5.70163 4.25 6.75 4.25ZM15.75 5.9375C16.0607 5.9375 16.3125 6.18934 16.3125 6.5C16.3125 6.81066 16.0607 7.0625 15.75 7.0625H11.25C10.9393 7.0625 10.6875 6.81066 10.6875 6.5C10.6875 6.18934 10.9393 5.9375 11.25 5.9375H15.75Z" fill="#828C9A"/>
</svg>
