<svg width="16" height="16" viewBox="0 0 16 16" fill="none" xmlns="http://www.w3.org/2000/svg">
<path d="M3.13158 13C2.96407 13 2.80343 12.9356 2.68499 12.821C2.56654 12.7064 2.5 12.551 2.5 12.3889C2.5 12.2268 2.56654 12.0714 2.68499 11.9568C2.80343 11.8422 2.96407 11.7778 3.13158 11.7778V3.83333C3.13158 3.3471 3.3312 2.88079 3.68653 2.53697C4.04187 2.19315 4.5238 2 5.02632 2H8.81579C9.3183 2 9.80024 2.19315 10.1556 2.53697C10.5109 2.88079 10.7105 3.3471 10.7105 3.83333V6.27778C11.213 6.27778 11.695 6.47093 12.0503 6.81475C12.4056 7.15857 12.6053 7.62488 12.6053 8.11111V9.94444C12.6053 10.0255 12.6385 10.1032 12.6978 10.1605C12.757 10.2178 12.8373 10.25 12.9211 10.25C13.0048 10.25 13.0851 10.2178 13.1443 10.1605C13.2036 10.1032 13.2368 10.0255 13.2368 9.94444V6.27778C12.9018 6.27778 12.5805 6.14901 12.3437 5.9198C12.1068 5.69059 11.9737 5.37971 11.9737 5.05556V4.69806L11.5272 4.26539C11.4184 4.16016 11.3531 4.02015 11.3434 3.87164C11.3338 3.72312 11.3805 3.5763 11.4747 3.45872L11.5272 3.40128C11.6456 3.28671 11.8062 3.22235 11.9737 3.22235C12.1412 3.22235 12.3018 3.28671 12.4202 3.40128L14.3168 5.23583L14.3768 5.30428L14.3945 5.32872L14.4223 5.37333L14.4552 5.44056L14.4747 5.49556L14.4874 5.542L14.4949 5.58967L14.5 5.66667V9.94444C14.5 10.3496 14.3336 10.7382 14.0375 11.0247C13.7414 11.3113 13.3398 11.4722 12.9211 11.4722C12.5023 11.4722 12.1007 11.3113 11.8046 11.0247C11.5085 10.7382 11.3421 10.3496 11.3421 9.94444V8.11111C11.3421 7.94903 11.2756 7.7936 11.1571 7.67899C11.0387 7.56438 10.878 7.5 10.7105 7.5V11.7778C10.878 11.7778 11.0387 11.8422 11.1571 11.9568C11.2756 12.0714 11.3421 12.2268 11.3421 12.3889C11.3421 12.551 11.2756 12.7064 11.1571 12.821C11.0387 12.9356 10.878 13 10.7105 13H3.13158ZM8.81579 3.22222H5.02632C4.85881 3.22222 4.69817 3.28661 4.57972 3.40121C4.46128 3.51582 4.39474 3.67126 4.39474 3.83333V6.27778H9.44737V3.83333C9.44737 3.67126 9.38083 3.51582 9.26238 3.40121C9.14394 3.28661 8.98329 3.22222 8.81579 3.22222Z" fill="#009A6F"/>
</svg>
