<svg width="13" height="12" viewBox="0 0 13 12" fill="none" xmlns="http://www.w3.org/2000/svg">
<path d="M1.13158 11.5C0.964074 11.5 0.803429 11.4356 0.684985 11.321C0.566541 11.2064 0.5 11.051 0.5 10.8889C0.5 10.7268 0.566541 10.5714 0.684985 10.4568C0.803429 10.3422 0.964074 10.2778 1.13158 10.2778V2.33333C1.13158 1.8471 1.3312 1.38079 1.68653 1.03697C2.04187 0.693154 2.5238 0.5 3.02632 0.5H6.81579C7.3183 0.5 7.80024 0.693154 8.15557 1.03697C8.5109 1.38079 8.71053 1.8471 8.71053 2.33333V4.77778C9.21304 4.77778 9.69497 4.97093 10.0503 5.31475C10.4056 5.65857 10.6053 6.12488 10.6053 6.61111V8.44444C10.6053 8.52548 10.6385 8.6032 10.6978 8.66051C10.757 8.71781 10.8373 8.75 10.9211 8.75C11.0048 8.75 11.0851 8.71781 11.1443 8.66051C11.2036 8.6032 11.2368 8.52548 11.2368 8.44444V4.77778C10.9018 4.77778 10.5805 4.64901 10.3437 4.4198C10.1068 4.19059 9.97368 3.87971 9.97368 3.55556V3.19806L9.52716 2.76539C9.41841 2.66016 9.35309 2.52015 9.34344 2.37164C9.33379 2.22312 9.38047 2.0763 9.47474 1.95872L9.52716 1.90128C9.6456 1.78671 9.80621 1.72235 9.97368 1.72235C10.1412 1.72235 10.3018 1.78671 10.4202 1.90128L12.3168 3.73583L12.3768 3.80428L12.3945 3.82872L12.4223 3.87333L12.4552 3.94056L12.4747 3.99556L12.4874 4.042L12.4949 4.08967L12.5 4.16667V8.44444C12.5 8.84964 12.3336 9.23823 12.0375 9.52475C11.7414 9.81126 11.3398 9.97222 10.9211 9.97222C10.5023 9.97222 10.1007 9.81126 9.80457 9.52475C9.50846 9.23823 9.3421 8.84964 9.3421 8.44444V6.61111C9.3421 6.44903 9.27556 6.2936 9.15712 6.17899C9.03868 6.06438 8.87803 6 8.71053 6V10.2778C8.87803 10.2778 9.03868 10.3422 9.15712 10.4568C9.27556 10.5714 9.3421 10.7268 9.3421 10.8889C9.3421 11.051 9.27556 11.2064 9.15712 11.321C9.03868 11.4356 8.87803 11.5 8.71053 11.5H1.13158ZM6.81579 1.72222H3.02632C2.85881 1.72222 2.69817 1.78661 2.57972 1.90121C2.46128 2.01582 2.39474 2.17126 2.39474 2.33333V4.77778H7.44737V2.33333C7.44737 2.17126 7.38083 2.01582 7.26238 1.90121C7.14394 1.78661 6.98329 1.72222 6.81579 1.72222Z" fill="#D73900"/>
</svg>
