<svg width="14" height="13" viewBox="0 0 14 13" fill="none" xmlns="http://www.w3.org/2000/svg">
<path d="M13.6653 3.16667V4.83333C13.6653 5.98261 13.2088 7.08481 12.3961 7.89746C11.5834 8.71012 10.4812 9.16667 9.33197 9.16667H7.6653V12.5H6.33197V7.83333L6.34464 7.16667C6.42861 6.0783 6.92024 5.06172 7.72127 4.32014C8.5223 3.57856 9.5737 3.16662 10.6653 3.16667H13.6653ZM2.99864 0.5C3.97831 0.499671 4.93324 0.807662 5.7281 1.38033C6.52297 1.95299 7.11745 2.76129 7.4273 3.69067C6.91725 4.12305 6.49936 4.65359 6.19849 5.25074C5.89763 5.84789 5.71993 6.49945 5.67597 7.16667H4.99864C3.76096 7.16667 2.57398 6.675 1.69881 5.79983C0.823635 4.92466 0.33197 3.73768 0.33197 2.5V0.5H2.99864Z" fill="#828C9A"/>
</svg>
