<svg width="16" height="16" viewBox="0 0 16 16" fill="none" xmlns="http://www.w3.org/2000/svg">
<path d="M14.6654 4.66667V6.33333C14.6654 7.48261 14.2088 8.58481 13.3962 9.39746C12.5835 10.2101 11.4813 10.6667 10.332 10.6667H8.66536V14H7.33203V9.33333L7.3447 8.66667C7.42867 7.5783 7.92031 6.56172 8.72133 5.82014C9.52236 5.07856 10.5738 4.66662 11.6654 4.66667H14.6654ZM3.9987 2C4.97837 1.99967 5.9333 2.30766 6.72816 2.88033C7.52303 3.45299 8.11751 4.26129 8.42736 5.19067C7.91731 5.62305 7.49942 6.15359 7.19855 6.75074C6.89769 7.34789 6.71999 7.99945 6.67603 8.66667H5.9987C4.76102 8.66667 3.57404 8.175 2.69887 7.29983C1.8237 6.42466 1.33203 5.23768 1.33203 4V2H3.9987Z" fill="#00C289"/>
</svg>
