<svg width="12" height="12" viewBox="0 0 12 12" fill="none" xmlns="http://www.w3.org/2000/svg">
<path fill-rule="evenodd" clip-rule="evenodd" d="M12 6C12 7.5913 11.3679 9.11742 10.2426 10.2426C9.11742 11.3679 7.5913 12 6 12C4.4087 12 2.88258 11.3679 1.75736 10.2426C0.632141 9.11742 0 7.5913 0 6C0 4.4087 0.632141 2.88258 1.75736 1.75736C2.88258 0.632141 4.4087 0 6 0C7.5913 0 9.11742 0.632141 10.2426 1.75736C11.3679 2.88258 12 4.4087 12 6ZM8.73257 3.26743C8.68282 3.21767 8.62376 3.17819 8.55876 3.15126C8.49375 3.12433 8.42408 3.11047 8.35371 3.11047C8.28335 3.11047 8.21368 3.12433 8.14867 3.15126C8.08367 3.17819 8.0246 3.21767 7.97486 3.26743L3.26743 7.97486C3.21768 8.02461 3.17821 8.08367 3.15128 8.14868C3.12436 8.21368 3.1105 8.28335 3.1105 8.35371C3.1105 8.42408 3.12436 8.49375 3.15128 8.55875C3.17821 8.62375 3.21768 8.68282 3.26743 8.73257C3.31718 8.78232 3.37625 8.82179 3.44125 8.84871C3.50625 8.87564 3.57593 8.8895 3.64629 8.8895C3.71665 8.8895 3.78632 8.87564 3.85132 8.84871C3.91633 8.82179 3.97539 8.78232 4.02514 8.73257L8.73257 4.02514C8.78233 3.9754 8.82181 3.91633 8.84874 3.85133C8.87567 3.78632 8.88953 3.71665 8.88953 3.64629C8.88953 3.57592 8.87567 3.50625 8.84874 3.44124C8.82181 3.37624 8.78233 3.31718 8.73257 3.26743ZM4.11686 3.11143C3.84986 3.11143 3.5938 3.21749 3.405 3.40629C3.21621 3.59508 3.11014 3.85115 3.11014 4.11814C3.11014 4.38514 3.21621 4.6412 3.405 4.83C3.5938 5.01879 3.84986 5.12486 4.11686 5.12486C4.38385 5.12486 4.63992 5.01879 4.82871 4.83C5.01751 4.6412 5.12357 4.38514 5.12357 4.11814C5.12357 3.85115 5.01751 3.59508 4.82871 3.40629C4.63992 3.21749 4.38385 3.11143 4.11686 3.11143ZM7.88314 6.87686C7.61615 6.87686 7.36008 6.98292 7.17129 7.17172C6.98249 7.36051 6.87643 7.61657 6.87643 7.88357C6.87643 8.15057 6.98249 8.40663 7.17129 8.59543C7.36008 8.78422 7.61615 8.89029 7.88314 8.89029C8.15014 8.89029 8.4062 8.78422 8.595 8.59543C8.78379 8.40663 8.88986 8.15057 8.88986 7.88357C8.88986 7.61657 8.78379 7.36051 8.595 7.17172C8.4062 6.98292 8.15014 6.87686 7.88314 6.87686Z" fill="#009A6F"/>
</svg>
