<svg width="15" height="12" viewBox="0 0 15 12" fill="none" xmlns="http://www.w3.org/2000/svg">
<path d="M7.50002 0C7.81828 0 8.12351 0.126428 8.34855 0.351472C8.5736 0.576515 8.70002 0.88174 8.70002 1.2C8.70002 1.644 8.46002 2.034 8.10002 2.238V3H8.70002C9.81393 3 10.8822 3.4425 11.6699 4.23015C12.4575 5.0178 12.9 6.08609 12.9 7.2H13.5C13.6592 7.2 13.8118 7.26321 13.9243 7.37574C14.0368 7.48826 14.1 7.64087 14.1 7.8V9.6C14.1 9.75913 14.0368 9.91174 13.9243 10.0243C13.8118 10.1368 13.6592 10.2 13.5 10.2H12.9V10.8C12.9 11.1183 12.7736 11.4235 12.5486 11.6485C12.3235 11.8736 12.0183 12 11.7 12H3.30002C2.98176 12 2.67654 11.8736 2.4515 11.6485C2.22645 11.4235 2.10002 11.1183 2.10002 10.8V10.2H1.50002C1.34089 10.2 1.18828 10.1368 1.07576 10.0243C0.963238 9.91174 0.900024 9.75913 0.900024 9.6V7.8C0.900024 7.64087 0.963238 7.48826 1.07576 7.37574C1.18828 7.26321 1.34089 7.2 1.50002 7.2H2.10002C2.10002 6.08609 2.54252 5.0178 3.33018 4.23015C4.11783 3.4425 5.18612 3 6.30002 3H6.90002V2.238C6.54002 2.034 6.30002 1.644 6.30002 1.2C6.30002 0.88174 6.42645 0.576515 6.6515 0.351472C6.87654 0.126428 7.18177 0 7.50002 0ZM4.80002 6.6C4.4022 6.6 4.02067 6.75804 3.73936 7.03934C3.45806 7.32064 3.30002 7.70218 3.30002 8.1C3.30002 8.49782 3.45806 8.87936 3.73936 9.16066C4.02067 9.44197 4.4022 9.6 4.80002 9.6C5.19785 9.6 5.57938 9.44197 5.86068 9.16066C6.14199 8.87936 6.30002 8.49782 6.30002 8.1C6.30002 7.70218 6.14199 7.32064 5.86068 7.03934C5.57938 6.75804 5.19785 6.6 4.80002 6.6ZM10.2 6.6C9.8022 6.6 9.42067 6.75804 9.13936 7.03934C8.85806 7.32064 8.70002 7.70218 8.70002 8.1C8.70002 8.49782 8.85806 8.87936 9.13936 9.16066C9.42067 9.44197 9.8022 9.6 10.2 9.6C10.5978 9.6 10.9794 9.44197 11.2607 9.16066C11.542 8.87936 11.7 8.49782 11.7 8.1C11.7 7.70218 11.542 7.32064 11.2607 7.03934C10.9794 6.75804 10.5978 6.6 10.2 6.6Z" fill="#009A6F"/>
</svg>
