<svg width="16" height="16" viewBox="0 0 16 16" fill="none" xmlns="http://www.w3.org/2000/svg">
<path d="M4 2.83301C4.27603 2.83301 4.49982 3.05702 4.5 3.33301V10.6602C4.54373 10.6273 4.58513 10.5895 4.62305 10.5469L5.62598 9.41797C5.80936 9.21166 6.12563 9.19275 6.33203 9.37598C6.53834 9.55936 6.55725 9.87564 6.37402 10.082L5.37012 11.2109C5.02909 11.5946 4.56736 11.7994 4.09766 11.8242C4.06613 11.8305 4.03336 11.833 4 11.833C3.96664 11.833 3.93388 11.8305 3.90234 11.8242C3.43264 11.7994 2.97091 11.5946 2.62988 11.2109L1.62598 10.082C1.44275 9.87564 1.46166 9.55936 1.66797 9.37598C1.87437 9.19275 2.19064 9.21166 2.37402 9.41797L3.37695 10.5469C3.41486 10.5895 3.45627 10.6273 3.5 10.6602V3.33301C3.50018 3.05702 3.72397 2.83301 4 2.83301ZM14 10.833C14.276 10.833 14.4998 11.057 14.5 11.333C14.5 11.6091 14.2761 11.833 14 11.833H8C7.72386 11.833 7.5 11.6091 7.5 11.333C7.50018 11.057 7.72397 10.833 8 10.833H14ZM12 6.83301C12.276 6.83301 12.4998 7.05702 12.5 7.33301C12.5 7.60915 12.2761 7.833 12 7.83301H8C7.72386 7.83301 7.5 7.60915 7.5 7.33301C7.50018 7.05701 7.72397 6.83301 8 6.83301H12ZM10 2.83301C10.276 2.83301 10.4998 3.05702 10.5 3.33301C10.5 3.60915 10.2761 3.833 10 3.83301H8C7.72386 3.83301 7.5 3.60915 7.5 3.33301C7.50018 3.05702 7.72397 2.83301 8 2.83301H10Z" fill="#828C9A"/>
</svg>
