<svg width="10" height="9" viewBox="0 0 10 9" fill="none" xmlns="http://www.w3.org/2000/svg">
<path d="M9.99902 2V3.25C9.99902 4.11195 9.65661 4.9386 9.04712 5.5481C8.43763 6.15759 7.61098 6.5 6.74902 6.5H5.49902V9H4.49902V5.5L4.50852 5C4.5715 4.18373 4.94023 3.42129 5.541 2.86511C6.14177 2.30892 6.93032 1.99997 7.74902 2H9.99902ZM1.99902 1.97685e-07C2.73378 -0.00024668 3.44997 0.230747 4.04612 0.660246C4.64227 1.08975 5.08813 1.69597 5.32052 2.393C4.93798 2.71728 4.62456 3.11519 4.39892 3.56306C4.17327 4.01092 4.03999 4.49959 4.00702 5H3.49902C2.57077 5 1.68053 4.63125 1.02415 3.97487C0.367772 3.3185 -0.000976562 2.42826 -0.000976562 1.5V1.97685e-07H1.99902Z" fill="#00DB9B"/>
</svg>
