<svg width="16" height="16" viewBox="0 0 16 16" fill="none" xmlns="http://www.w3.org/2000/svg">
<g clip-path="url(#clip0_1504_860)">
<path d="M13.1277 13.8733H2.87229C2.48373 13.8733 2.11109 13.7189 1.83633 13.4442C1.56158 13.1694 1.40723 12.7968 1.40723 12.4082V5.81546C1.40723 5.42691 1.56158 5.05426 1.83633 4.77951C2.11109 4.50476 2.48373 4.3504 2.87229 4.3504H13.1277C13.5163 4.3504 13.8889 4.50476 14.1637 4.77951C14.4384 5.05426 14.5928 5.42691 14.5928 5.81546V12.4082C14.5928 12.7968 14.4384 13.1694 14.1637 13.4442C13.8889 13.7189 13.5163 13.8733 13.1277 13.8733Z" stroke="#F6F6F6"/>
<path d="M11.2964 9.47811C11.1993 9.47811 11.1061 9.43952 11.0375 9.37083C10.9688 9.30214 10.9302 9.20898 10.9302 9.11184C10.9302 9.0147 10.9688 8.92154 11.0375 8.85285C11.1061 8.78416 11.1993 8.74557 11.2964 8.74557C11.3936 8.74557 11.4867 8.78416 11.5554 8.85285C11.6241 8.92154 11.6627 9.0147 11.6627 9.11184C11.6627 9.20898 11.6241 9.30214 11.5554 9.37083C11.4867 9.43952 11.3936 9.47811 11.2964 9.47811Z" fill="#F6F6F6" stroke="#F6F6F6" stroke-linecap="round" stroke-linejoin="round"/>
<path d="M12.3952 4.35042V3.32708C12.3951 3.10256 12.3435 2.88106 12.2442 2.67968C12.1449 2.4783 12.0007 2.30244 11.8226 2.16566C11.6446 2.02889 11.4375 1.93486 11.2173 1.89085C10.9972 1.84684 10.7698 1.85402 10.5529 1.91183L2.49503 4.06034C2.18302 4.14349 1.90721 4.32739 1.71049 4.58346C1.51377 4.83953 1.40716 5.15342 1.40723 5.47632V5.81549" stroke="#F6F6F6"/>
</g>
<defs>
<clipPath id="clip0_1504_860">
<rect width="16" height="16" fill="white"/>
</clipPath>
</defs>
</svg>
