<svg width="16" height="16" viewBox="0 0 16 16" fill="none" xmlns="http://www.w3.org/2000/svg">
<path d="M8 1.5C6.71442 1.5 5.45772 1.88122 4.3888 2.59545C3.31988 3.30968 2.48676 4.32484 1.99479 5.51256C1.50282 6.70028 1.37409 8.00721 1.6249 9.26809C1.8757 10.529 2.49477 11.6872 3.40381 12.5962C4.31285 13.5052 5.47104 14.1243 6.73192 14.3751C7.99279 14.6259 9.29973 14.4972 10.4874 14.0052C11.6752 13.5132 12.6903 12.6801 13.4046 11.6112C14.1188 10.5423 14.5 9.28558 14.5 8C14.4982 6.27665 13.8128 4.62441 12.5942 3.40582C11.3756 2.18722 9.72335 1.50182 8 1.5ZM8 13.5C6.91221 13.5 5.84884 13.1774 4.94437 12.5731C4.0399 11.9687 3.33495 11.1098 2.91867 10.1048C2.50238 9.09977 2.39347 7.9939 2.60568 6.927C2.8179 5.86011 3.34173 4.8801 4.11092 4.11091C4.8801 3.34172 5.86011 2.8179 6.92701 2.60568C7.9939 2.39346 9.09977 2.50238 10.1048 2.91866C11.1098 3.33494 11.9687 4.03989 12.5731 4.94436C13.1774 5.84883 13.5 6.9122 13.5 8C13.4983 9.45818 12.9184 10.8562 11.8873 11.8873C10.8562 12.9184 9.45819 13.4983 8 13.5ZM10.5 9.25C10.5 9.71413 10.3156 10.1592 9.98744 10.4874C9.65925 10.8156 9.21413 11 8.75 11H8.5V11.5C8.5 11.6326 8.44732 11.7598 8.35356 11.8536C8.25979 11.9473 8.13261 12 8 12C7.86739 12 7.74022 11.9473 7.64645 11.8536C7.55268 11.7598 7.5 11.6326 7.5 11.5V11H6.5C6.36739 11 6.24022 10.9473 6.14645 10.8536C6.05268 10.7598 6 10.6326 6 10.5C6 10.3674 6.05268 10.2402 6.14645 10.1464C6.24022 10.0527 6.36739 10 6.5 10H8.75C8.94892 10 9.13968 9.92098 9.28033 9.78033C9.42099 9.63968 9.5 9.44891 9.5 9.25C9.5 9.05109 9.42099 8.86032 9.28033 8.71967C9.13968 8.57902 8.94892 8.5 8.75 8.5H7.25C6.78587 8.5 6.34075 8.31563 6.01257 7.98744C5.68438 7.65925 5.5 7.21413 5.5 6.75C5.5 6.28587 5.68438 5.84075 6.01257 5.51256C6.34075 5.18437 6.78587 5 7.25 5H7.5V4.5C7.5 4.36739 7.55268 4.24022 7.64645 4.14645C7.74022 4.05268 7.86739 4 8 4C8.13261 4 8.25979 4.05268 8.35356 4.14645C8.44732 4.24022 8.5 4.36739 8.5 4.5V5H9.5C9.63261 5 9.75979 5.05268 9.85356 5.14645C9.94732 5.24022 10 5.36739 10 5.5C10 5.63261 9.94732 5.75979 9.85356 5.85355C9.75979 5.94732 9.63261 6 9.5 6H7.25C7.05109 6 6.86032 6.07902 6.71967 6.21967C6.57902 6.36032 6.5 6.55109 6.5 6.75C6.5 6.94891 6.57902 7.13968 6.71967 7.28033C6.86032 7.42098 7.05109 7.5 7.25 7.5H8.75C9.21413 7.5 9.65925 7.68437 9.98744 8.01256C10.3156 8.34075 10.5 8.78587 10.5 9.25Z" fill="#F6F6F6"/>
</svg>
