<svg width="16" height="16" viewBox="0 0 16 16" fill="none" xmlns="http://www.w3.org/2000/svg">
<path d="M3.15183 10.758C2.12183 9.72732 1.6065 9.21266 1.41516 8.54399C1.22316 7.87532 1.38716 7.16532 1.71516 5.74599L1.90383 4.92732C2.17916 3.73266 2.31716 3.13532 2.72583 2.72599C3.1345 2.31666 3.7325 2.17932 4.92716 1.90399L5.74583 1.71466C7.16583 1.38732 7.87516 1.22332 8.54383 1.41466C9.2125 1.60666 9.72716 2.12199 10.7572 3.15199L11.9772 4.37199C13.7712 6.16532 14.6665 7.06132 14.6665 8.17466C14.6665 9.28866 13.7705 10.1847 11.9778 11.9773C10.1845 13.7707 9.2885 14.6667 8.1745 14.6667C7.06116 14.6667 6.1645 13.7707 4.37183 11.978L3.15183 10.758Z" stroke="#F6F6F6"/>
<path d="M10.2597 10.26C10.6497 9.86865 10.7024 9.28865 10.377 8.96265C10.0517 8.63665 9.47102 8.68998 9.08035 9.08065C8.69035 9.47132 8.10968 9.52398 7.78435 9.19865C7.45902 8.87332 7.51168 8.29265 7.90235 7.90265M7.90235 7.90265L7.66635 7.66665M7.90235 7.90265C8.12302 7.68132 8.40435 7.56932 8.66635 7.57132M10.495 10.4953L10.259 10.2593C9.99235 10.5266 9.63568 10.636 9.33302 10.5733" stroke="#F6F6F6" stroke-linecap="round"/>
<path d="M6.68048 6.86212C7.20118 6.34142 7.20118 5.4972 6.68048 4.9765C6.15978 4.4558 5.31556 4.4558 4.79486 4.9765C4.27416 5.4972 4.27416 6.34142 4.79486 6.86212C5.31556 7.38282 6.15978 7.38282 6.68048 6.86212Z" stroke="#F6F6F6"/>
</svg>
