<svg width="16" height="16" viewBox="0 0 16 16" fill="none" xmlns="http://www.w3.org/2000/svg">
<path d="M3.15189 10.758C2.12189 9.72735 1.60656 9.21269 1.41522 8.54402C1.22322 7.87535 1.38722 7.16536 1.71522 5.74602L1.90389 4.92735C2.17922 3.73269 2.31722 3.13535 2.72589 2.72602C3.13456 2.31669 3.73256 2.17935 4.92722 1.90402L5.74589 1.71469C7.16589 1.38735 7.87522 1.22335 8.54389 1.41469C9.21256 1.60669 9.72722 2.12202 10.7572 3.15202L11.9772 4.37202C13.7712 6.16535 14.6666 7.06135 14.6666 8.17469C14.6666 9.28869 13.7706 10.1847 11.9779 11.9774C10.1846 13.7707 9.28856 14.6667 8.17456 14.6667C7.06122 14.6667 6.16456 13.7707 4.37189 11.978L3.15189 10.758Z" stroke="#828C9A"/>
<path d="M10.2598 10.26C10.6498 9.86871 10.7025 9.28871 10.3771 8.96271C10.0518 8.63671 9.47114 8.69004 9.08047 9.08071C8.69047 9.47138 8.10981 9.52404 7.78447 9.19871C7.45914 8.87338 7.51181 8.29271 7.90247 7.90271M7.90247 7.90271L7.66647 7.66671M7.90247 7.90271C8.12314 7.68138 8.40447 7.56938 8.66647 7.57138M10.4951 10.4954L10.2591 10.2594C9.99247 10.5267 9.63581 10.636 9.33314 10.5734" stroke="#828C9A" stroke-linecap="round"/>
<path d="M6.68054 6.86218C7.20124 6.34148 7.20124 5.49726 6.68054 4.97656C6.15984 4.45586 5.31562 4.45586 4.79492 4.97656C4.27422 5.49726 4.27422 6.34148 4.79492 6.86218C5.31562 7.38288 6.15984 7.38288 6.68054 6.86218Z" stroke="#828C9A"/>
</svg>
