<svg width="16" height="16" viewBox="0 0 16 16" fill="none" xmlns="http://www.w3.org/2000/svg">
<path d="M5.99991 8.33332L4.33325 9.99999L5.99991 11.6667L7.66658 9.99999L5.99991 8.33332ZM9.99991 1.66666C8.90628 1.66667 7.8531 2.08021 7.05163 2.82431C6.25015 3.56841 5.75968 4.58803 5.67858 5.67866C4.85118 5.74017 4.05883 6.03792 3.39568 6.53652C2.73253 7.03513 2.22646 7.71364 1.9376 8.49142C1.64875 9.2692 1.58925 10.1136 1.76618 10.9242C1.94311 11.7348 2.34903 12.4775 2.93571 13.0642C3.52238 13.6509 4.26515 14.0568 5.07575 14.2337C5.88635 14.4107 6.73071 14.3512 7.50849 14.0623C8.28627 13.7734 8.96477 13.2674 9.46338 12.6042C9.96199 11.9411 10.2597 11.1487 10.3212 10.3213C11.4394 10.2379 12.4817 9.72437 13.2292 8.88854C13.9766 8.05272 14.3709 6.95971 14.3293 5.83921C14.2877 4.71871 13.8134 3.65796 13.0061 2.87986C12.1987 2.10176 11.1212 1.6669 9.99991 1.66666ZM10.2152 8.99266C10.0285 8.21405 9.62997 7.50228 9.0638 6.93611C8.49762 6.36993 7.78586 5.97142 7.00725 5.78466C7.0486 5.21118 7.25388 4.66167 7.59864 4.20154C7.94341 3.74141 8.41314 3.39004 8.95191 3.18927C9.49068 2.9885 10.0758 2.94678 10.6376 3.06908C11.1994 3.19138 11.7142 3.47254 12.1208 3.87911C12.5274 4.28567 12.8085 4.80049 12.9308 5.3623C13.0531 5.92411 13.0114 6.50922 12.8106 7.048C12.6099 7.58677 12.2585 8.05649 11.7984 8.40126C11.3382 8.74603 10.7887 8.9513 10.2152 8.99266ZM8.99991 9.99999C8.99991 10.7956 8.68384 11.5587 8.12123 12.1213C7.55862 12.6839 6.79556 13 5.99991 13C5.20426 13 4.4412 12.6839 3.87859 12.1213C3.31598 11.5587 2.99991 10.7956 2.99991 9.99999C2.99991 9.20434 3.31598 8.44128 3.87859 7.87867C4.4412 7.31606 5.20426 6.99999 5.99991 6.99999C6.79556 6.99999 7.55862 7.31606 8.12123 7.87867C8.68384 8.44128 8.99991 9.20434 8.99991 9.99999ZM1.99991 4.66666C1.99991 3.95941 2.28086 3.28114 2.78096 2.78104C3.28106 2.28094 3.95934 1.99999 4.66658 1.99999H4.99991C5.3681 1.99999 5.66658 2.29847 5.66658 2.66666C5.66658 3.03485 5.3681 3.33332 4.99991 3.33332H4.66658C4.31296 3.33332 3.97382 3.4738 3.72377 3.72385C3.47372 3.9739 3.33325 4.31303 3.33325 4.66666V4.99999C3.33325 5.36818 3.03477 5.66666 2.66658 5.66666C2.29839 5.66666 1.99991 5.36818 1.99991 4.99999V4.66666ZM12.6666 11.3333V11C12.6666 10.6318 12.9651 10.3333 13.3332 10.3333C13.7014 10.3333 13.9999 10.6318 13.9999 11V11.3333C13.9999 12.0406 13.719 12.7188 13.2189 13.2189C12.7188 13.719 12.0405 14 11.3332 14H10.9999C10.6317 14 10.3332 13.7015 10.3332 13.3333C10.3332 12.9651 10.6317 12.6667 10.9999 12.6667H11.3332C11.6869 12.6667 12.026 12.5262 12.2761 12.2761C12.5261 12.0261 12.6666 11.6869 12.6666 11.3333Z" fill="#F6F6F6"/>
</svg>
