<svg width="16" height="16" viewBox="0 0 16 16" fill="none" xmlns="http://www.w3.org/2000/svg">
<path d="M6.00004 8.33335L4.33337 10L6.00004 11.6667L7.6667 10L6.00004 8.33335ZM10 1.66669C8.9064 1.6667 7.85322 2.08024 7.05175 2.82434C6.25028 3.56844 5.7598 4.58806 5.6787 5.67869C4.8513 5.7402 4.05895 6.03795 3.3958 6.53655C2.73265 7.03516 2.22658 7.71367 1.93773 8.49145C1.64887 9.26923 1.58937 10.1136 1.7663 10.9242C1.94323 11.7348 2.34915 12.4775 2.93583 13.0642C3.52251 13.6509 4.26527 14.0568 5.07588 14.2338C5.88648 14.4107 6.73083 14.3512 7.50861 14.0623C8.28639 13.7735 8.96489 13.2674 9.4635 12.6043C9.96211 11.9411 10.2599 11.1488 10.3214 10.3214C11.4395 10.238 12.4819 9.7244 13.2293 8.88857C13.9767 8.05275 14.3711 6.95974 14.3295 5.83924C14.2879 4.71874 13.8135 3.65799 13.0062 2.87989C12.1988 2.10179 11.1213 1.66693 10 1.66669ZM10.2154 8.99269C10.0286 8.21408 9.6301 7.50231 9.06392 6.93614C8.49774 6.36996 7.78598 5.97145 7.00737 5.78469C7.04872 5.21121 7.254 4.6617 7.59877 4.20157C7.94353 3.74144 8.41326 3.39007 8.95203 3.1893C9.4908 2.98853 10.0759 2.94681 10.6377 3.06911C11.1995 3.19141 11.7144 3.47258 12.1209 3.87914C12.5275 4.2857 12.8086 4.80053 12.9309 5.36233C13.0532 5.92414 13.0115 6.50926 12.8108 7.04803C12.61 7.5868 12.2586 8.05653 11.7985 8.40129C11.3384 8.74606 10.7888 8.95133 10.2154 8.99269ZM9.00004 10C9.00004 10.7957 8.68397 11.5587 8.12136 12.1213C7.55875 12.6839 6.79568 13 6.00004 13C5.20439 13 4.44132 12.6839 3.87872 12.1213C3.31611 11.5587 3.00004 10.7957 3.00004 10C3.00004 9.20437 3.31611 8.44131 3.87872 7.8787C4.44132 7.31609 5.20439 7.00002 6.00004 7.00002C6.79568 7.00002 7.55875 7.31609 8.12136 7.8787C8.68397 8.44131 9.00004 9.20437 9.00004 10ZM2.00004 4.66669C2.00004 3.95944 2.28099 3.28117 2.78108 2.78107C3.28118 2.28097 3.95946 2.00002 4.6667 2.00002H5.00004C5.36823 2.00002 5.6667 2.2985 5.6667 2.66669C5.6667 3.03488 5.36823 3.33335 5.00004 3.33335H4.6667C4.31308 3.33335 3.97394 3.47383 3.72389 3.72388C3.47384 3.97393 3.33337 4.31307 3.33337 4.66669V5.00002C3.33337 5.36821 3.03489 5.66669 2.6667 5.66669C2.29851 5.66669 2.00004 5.36821 2.00004 5.00002V4.66669ZM12.6667 11.3334V11C12.6667 10.6318 12.9652 10.3334 13.3334 10.3334C13.7016 10.3334 14 10.6318 14 11V11.3334C14 12.0406 13.7191 12.7189 13.219 13.219C12.7189 13.7191 12.0406 14 11.3334 14H11C10.6318 14 10.3334 13.7015 10.3334 13.3334C10.3334 12.9652 10.6318 12.6667 11 12.6667H11.3334C11.687 12.6667 12.0261 12.5262 12.2762 12.2762C12.5262 12.0261 12.6667 11.687 12.6667 11.3334Z" fill="#828C9A"/>
</svg>
