<svg width="16" height="16" viewBox="0 0 16 16" fill="none" xmlns="http://www.w3.org/2000/svg">
<path d="M6 8.33334L4.33333 10L6 11.6667L7.66666 10L6 8.33334ZM10 1.66667C8.90636 1.66669 7.85318 2.08022 7.05171 2.82432C6.25024 3.56842 5.75976 4.58805 5.67866 5.67867C4.85126 5.74018 4.05891 6.03793 3.39576 6.53654C2.73261 7.03515 2.22654 7.71365 1.93769 8.49143C1.64883 9.26921 1.58934 10.1136 1.76627 10.9242C1.9432 11.7348 2.34912 12.4775 2.93579 13.0642C3.52247 13.6509 4.26524 14.0568 5.07584 14.2337C5.88644 14.4107 6.73079 14.3512 7.50857 14.0623C8.28635 13.7735 8.96486 13.2674 9.46346 12.6042C9.96207 11.9411 10.2598 11.1487 10.3213 10.3213C11.4395 10.238 12.4818 9.72438 13.2292 8.88856C13.9767 8.05273 14.371 6.95973 14.3294 5.83923C14.2878 4.71873 13.8135 3.65797 13.0061 2.87987C12.1988 2.10177 11.1213 1.66691 10 1.66667ZM10.2153 8.99267C10.0286 8.21406 9.63006 7.5023 9.06388 6.93612C8.49771 6.36994 7.78594 5.97143 7.00733 5.78467C7.04868 5.2112 7.25396 4.66168 7.59873 4.20155C7.94349 3.74142 8.41322 3.39006 8.95199 3.18929C9.49076 2.98851 10.0759 2.94679 10.6377 3.06909C11.1995 3.19139 11.7143 3.47256 12.1209 3.87912C12.5274 4.28568 12.8086 4.80051 12.9309 5.36232C13.0532 5.92412 13.0115 6.50924 12.8107 7.04801C12.6099 7.58678 12.2586 8.05651 11.7984 8.40128C11.3383 8.74604 10.7888 8.95132 10.2153 8.99267ZM9 10C9 10.7957 8.68393 11.5587 8.12132 12.1213C7.55871 12.6839 6.79565 13 6 13C5.20435 13 4.44129 12.6839 3.87868 12.1213C3.31607 11.5587 3 10.7957 3 10C3 9.20436 3.31607 8.44129 3.87868 7.87868C4.44129 7.31608 5.20435 7.00001 6 7.00001C6.79565 7.00001 7.55871 7.31608 8.12132 7.87868C8.68393 8.44129 9 9.20436 9 10ZM2 4.66667C2 3.95943 2.28095 3.28115 2.78105 2.78105C3.28114 2.28096 3.95942 2.00001 4.66666 2.00001H5.66666V3.33334H4.66666C4.31304 3.33334 3.9739 3.47381 3.72386 3.72386C3.47381 3.97391 3.33333 4.31305 3.33333 4.66667V5.66667H2V4.66667ZM12.6667 11.3333V10.3333H14V11.3333C14 12.0406 13.719 12.7189 13.2189 13.219C12.7189 13.7191 12.0406 14 11.3333 14H10.3333V12.6667H11.3333C11.687 12.6667 12.0261 12.5262 12.2761 12.2761C12.5262 12.0261 12.6667 11.687 12.6667 11.3333Z" fill="#F6F6F6"/>
</svg>
