<svg width="16" height="16" viewBox="0 0 16 16" fill="none" xmlns="http://www.w3.org/2000/svg">
<path d="M8.02003 16C6.91069 16 5.87103 15.7913 4.90103 15.374C3.93103 14.9567 3.08369 14.3853 2.35903 13.66C1.63436 12.9347 1.06303 12.0873 0.645026 11.118C0.227026 10.1487 0.0186926 9.10933 0.0200259 8C0.0213592 6.89067 0.230026 5.85133 0.646026 4.882C1.06203 3.91267 1.63336 3.06533 2.36003 2.34C3.08669 1.61467 3.93336 1.04333 4.90003 0.626C5.86669 0.208667 6.90636 0 8.01903 0C9.16769 0 10.2617 0.237333 11.301 0.712C12.3404 1.186 13.2464 1.84733 14.019 2.696V0.308H15.019V4.462H10.866V3.462H13.346C12.65 2.69533 11.8467 2.09333 10.936 1.656C10.0267 1.21867 9.05469 1 8.02003 1C6.06936 1 4.41503 1.67933 3.05703 3.038C1.69903 4.39667 1.01969 6.05067 1.01903 8C1.01836 9.94933 1.69769 11.6037 3.05703 12.963C4.41636 14.3223 6.07036 15.0013 8.01903 15C9.76903 15 11.292 14.43 12.588 13.29C13.884 12.15 14.6674 10.72 14.938 9H15.95C15.7127 11.014 14.8394 12.684 13.33 14.01C11.8207 15.3367 10.0507 16 8.02003 16ZM11.166 11.854L7.51903 8.208V3H8.51903V7.792L11.873 11.146L11.166 11.854Z" fill="#828C9A"/>
</svg>
