<svg width="11" height="13" viewBox="0 0 11 13" fill="none" xmlns="http://www.w3.org/2000/svg">
<path fill-rule="evenodd" clip-rule="evenodd" d="M7.81181 4.19787C8.16183 4.57721 8.44183 5.04653 8.4953 5.69094H3.10107C3.1502 5.09933 3.46033 4.54884 3.78456 4.19787C4.81292 3.08441 6.78834 3.08835 7.81181 4.19787ZM0.735186 9.0032C1.61941 11.4217 3.91418 12.5667 6.12222 12.5858C7.97807 12.6018 8.96503 12.0476 10.215 10.9565C10.364 10.8265 10.3871 10.6046 10.2681 10.4467C10.0152 10.1115 9.58853 9.54323 9.30474 9.15371C9.23864 9.06305 9.14649 9.0108 9.03479 9.00076C8.92309 8.99058 8.82293 9.02546 8.74163 9.10269C8.2548 9.56563 7.76553 10.0443 6.12955 10.0443C4.57473 10.0443 3.45462 9.19538 3.10121 7.67843L10.7669 7.77303C11.6986 4.8519 9.79822 1.74308 7.09887 1.07873C5.23325 0.619722 3.2163 1.22327 1.84511 2.6368C0.310515 4.21904 -1.45435e-05 6.99222 0.735321 9.0032H0.735186Z" fill="#FEFEFE"/>
</svg>
