<svg width="12" height="13" viewBox="0 0 12 13" fill="none" xmlns="http://www.w3.org/2000/svg">
<path fill-rule="evenodd" clip-rule="evenodd" d="M5.72869 10.0443C2.62462 10.0443 2.05554 5.9979 3.66682 4.29148C4.73562 3.15957 6.68471 3.12021 7.83576 4.43576C8.78038 5.51528 8.8367 7.72929 7.85449 9.04701C7.40946 9.64391 6.56202 10.0443 5.72869 10.0443ZM11.3123 7.11054C11.3123 5.37331 11.0035 4.06306 9.83574 2.71943C9.72296 2.58954 9.69324 2.55222 9.55833 2.42898C9.43564 2.31702 9.32475 2.22364 9.20179 2.12307C6.52809 -0.0623087 1.79211 0.677776 0.39106 4.70679C-0.329889 6.78006 0.157212 9.41386 1.74393 11.0004L2.30527 11.4801C5.1417 13.6163 9.19785 12.516 10.7512 9.36025C11.0917 8.66862 11.3123 7.91278 11.3123 7.11054Z" fill="#FEFEFE"/>
</svg>
