<svg width="12" height="13" viewBox="0 0 12 13" fill="none" xmlns="http://www.w3.org/2000/svg">
<path fill-rule="evenodd" clip-rule="evenodd" d="M5.70989 10.0443C4.90859 10.0443 4.60824 9.83893 4.06753 9.50994C3.81387 9.35563 3.84861 9.39228 3.66389 9.15639C2.29203 7.40492 2.7095 4.40521 4.64 3.67476C7.37735 2.63894 9.27433 5.30952 8.42634 8.02882C8.39214 8.13835 8.28112 8.38183 8.20009 8.55963C8.05989 8.86731 8.07659 8.8517 7.86595 9.07714C7.35279 9.62613 6.73716 10.0441 5.70989 10.0441V10.0443ZM0.126328 6.25875C0.126328 7.63306 0.0530385 7.04593 0.287429 8.17975C0.385826 8.65518 0.35176 8.59899 0.515711 8.99244C0.761095 9.58093 1.04448 10.1258 1.44934 10.614L2.27235 11.3999C3.15318 12.1173 4.05219 12.4484 5.23717 12.509C7.05257 12.6015 8.39757 12.2655 9.7408 10.9521C9.76048 10.9328 9.81436 10.8753 9.83295 10.8551C10.4702 10.1579 10.955 9.22263 11.1718 8.31384C11.4547 7.12845 11.3661 5.72062 11.0344 4.72008C10.5418 3.23462 9.48401 2.0153 8.10523 1.40306C7.0808 0.948128 5.46735 0.760696 4.40737 1.07625C4.25062 1.12294 4.04568 1.16555 3.88553 1.21686C3.08206 1.47432 2.53741 1.84742 1.93047 2.38487C1.24277 2.99372 0.480696 4.20448 0.313352 5.121C0.236941 5.53902 0.126328 5.80042 0.126328 6.25888V6.25875Z" fill="#FEFEFE"/>
</svg>
