<svg width="7" height="13" viewBox="0 0 7 13" fill="none" xmlns="http://www.w3.org/2000/svg">
<path fill-rule="evenodd" clip-rule="evenodd" d="M0.754039 1.25406C0.754039 4.90101 0.754039 8.54811 0.754039 12.1951C0.754039 12.3135 0.850673 12.4102 0.969158 12.4102H3.18874C3.30722 12.4102 3.40386 12.3135 3.40386 12.1951V6.92122C3.40386 6.87168 3.40467 6.82187 3.40616 6.77233C3.45529 5.20503 4.27071 3.93319 5.86434 3.70355H6.7848C6.90328 3.70355 6.99992 3.60691 6.99992 3.48843V1.1748C6.99992 1.11535 6.97861 1.06418 6.9364 1.02211C6.89419 0.980172 6.84289 0.959272 6.78344 0.959544C5.75508 0.966194 4.86313 1.04097 3.9295 1.76857C3.69376 1.9522 3.61897 2.07829 3.40372 2.15918V1.25379C3.40372 1.1353 3.30708 1.03867 3.1886 1.03867C2.44878 1.03867 1.70884 1.03867 0.969022 1.03867C0.850538 1.03867 0.753906 1.1353 0.753906 1.25379L0.754039 1.25406Z" fill="#FEFEFE"/>
</svg>
