<svg width="9" height="15" viewBox="0 0 9 15" fill="none" xmlns="http://www.w3.org/2000/svg">
<path fill-rule="evenodd" clip-rule="evenodd" d="M0.766843 2.95914H2.20521V1.06393C2.20521 0.856819 2.37419 0.687847 2.5813 0.687847H4.47162C4.67452 0.687847 4.84092 0.848949 4.84743 1.05185L4.9066 2.88707V2.95914H7.22336C7.43047 2.95914 7.59944 3.12811 7.59944 3.33522V5.1703C7.59944 5.37741 7.43047 5.54638 7.22336 5.54638H4.9066V9.92854V10.2806C4.9066 11.0837 5.05033 12.139 6.08521 12.139C6.72866 12.139 6.99725 12.0296 7.20558 11.9022C7.3052 11.8413 7.41581 11.8294 7.52602 11.8681C7.63622 11.9067 7.71535 11.9848 7.75525 12.0946L8.2547 13.4681C8.31564 13.6358 8.25375 13.8179 8.10351 13.9137C7.1593 14.5159 6.67518 14.6049 5.14045 14.5046C4.01872 14.4314 3.07994 13.6998 2.67413 12.9003C2.39414 12.349 2.26235 11.6351 2.20508 10.8592C2.20508 10.7187 2.20861 10.5286 2.21417 10.3042C2.21417 8.71845 2.20508 7.13161 2.20508 5.54666H0.766707C0.559597 5.54666 0.390625 5.37768 0.390625 5.17057V3.33549C0.390625 3.12838 0.559597 2.95941 0.766707 2.95941L0.766843 2.95914Z" fill="#FEFEFE"/>
</svg>
